<svg width="39" height="39" viewBox="0 0 39 39" fill="none" xmlns="http://www.w3.org/2000/svg">
<path d="M7.41249 31.5875L1.78749 28.4937C1.37499 28.2687 1.14099 27.941 1.08549 27.5105C1.02999 27.08 1.15149 26.714 1.44999 26.4125L2.12499 25.7375C2.27499 25.5875 2.45349 25.484 2.66049 25.427C2.86749 25.37 3.06399 25.361 3.24999 25.4L8.19999 26.075L16.975 17.3L1.67499 8.97499C1.11249 8.67499 0.784744 8.20624 0.691744 7.56874C0.598744 6.93124 0.776494 6.38749 1.22499 5.93749L1.78749 5.37499C2.04999 5.11249 2.34099 4.94374 2.66049 4.86874C2.97999 4.79374 3.30774 4.79374 3.64374 4.86874L24.0625 10.1L32.8937 1.38124C33.5312 0.743738 34.3285 0.424988 35.2855 0.424988C36.2425 0.424988 37.039 0.743738 37.675 1.38124C38.3125 2.01874 38.6312 2.81599 38.6312 3.77299C38.6312 4.72999 38.3125 5.52649 37.675 6.16249L28.9 14.9375L34.1312 35.2437C34.2062 35.6187 34.1965 35.9847 34.102 36.3417C34.0075 36.6987 33.8297 37.0077 33.5687 37.2687L33.2875 37.55C32.7625 38.075 32.1527 38.2812 31.4582 38.1687C30.7637 38.0562 30.2485 37.6812 29.9125 37.0437L21.7 22.025L12.925 30.8L13.6 35.6375C13.6375 35.9 13.6187 36.1437 13.5437 36.3687C13.4687 36.5937 13.3375 36.8 13.15 36.9875L12.8687 37.2687C12.4937 37.6437 12.0437 37.8027 11.5187 37.7457C10.9937 37.6887 10.6 37.4172 10.3375 36.9312L7.41249 31.5875Z" fill="#E29770"/>
</svg>
